<?xml version="1.0" standalone="no"?><!DOCTYPE svg PUBLIC "-//W3C//DTD SVG 1.1//EN" "http://www.w3.org/Graphics/SVG/1.1/DTD/svg11.dtd"><svg t="1744987561415" class="icon" viewBox="0 0 1024 1024" version="1.1" xmlns="http://www.w3.org/2000/svg" p-id="4454" xmlns:xlink="http://www.w3.org/1999/xlink" width="200" height="200"><path d="M425.1 648.5c-11.6 0-21-9.5-21-21v-231c0-11.6 9.4-21 21-21 11.5 0 21 9.4 21 21v231c0 11.5-9.4 21-21 21z m168 0c-11.6 0-21-9.5-21-21v-231c0-11.6 9.4-21 21-21 11.5 0 21 9.4 21 21v231c0 11.5-9.4 21-21 21z" p-id="4455" fill="#2c2c2c"></path><path d="M512 113c220 0 399 179 399 399S732 911 512 911 113 732 113 512s179-399 399-399m0-42C268.4 71 71 268.4 71 512s197.4 441 441 441 441-197.4 441-441S755.6 71 512 71z" p-id="4456" fill="#2c2c2c"></path></svg>